<svg width="200" height="228" viewBox="0 0 200 228" xmlns="http://www.w3.org/2000/svg">
  <g fill="none" stroke="black" stroke-width="2">
    <g>
      <path d="M10 30 q10 -10 20 0 q10 -10 20 0 q10 10 0 15 h-40 q-10 -5 0 -15z"/>
      <path d="M30 40 q10 -10 20 0 q10 -10 20 0 q10 10 0 15 h-40 q-10 -5 0 -15z"/>
      <path d="M150 30 q10 -10 20 0 q10 -10 20 0 q10 10 0 15 h-40 q-10 -5 0 -15z"/>
      <path d="M130 40 q10 -10 20 0 q10 -10 20 0 q10 10 0 15 h-40 q-10 -5 0 -15z"/>
    </g>
  </g>
</svg>
