<svg width="144" height="168" viewBox="0 0 200 228" xmlns="http://www.w3.org/2000/svg">
  <g fill="none" stroke="black" stroke-width="2">
    <g>
      <circle cx="30" cy="200" r="4"/>
      <circle cx="30" cy="190" r="4"/>
      <circle cx="22" cy="196" r="4"/>
      <circle cx="38" cy="196" r="4"/>
      <circle cx="24" cy="206" r="4"/>
      <circle cx="36" cy="206" r="4"/>
      <line x1="30" y1="204" x2="30" y2="220"/>

      <circle cx="55" cy="205" r="4"/>
      <circle cx="55" cy="195" r="4"/>
      <circle cx="47" cy="201" r="4"/>
      <circle cx="63" cy="201" r="4"/>
      <circle cx="49" cy="211" r="4"/>
      <circle cx="61" cy="211" r="4"/>
      <line x1="55" y1="209" x2="55" y2="225"/>

      <circle cx="170" cy="200" r="4"/>
      <circle cx="170" cy="190" r="4"/>
      <circle cx="162" cy="196" r="4"/>
      <circle cx="178" cy="196" r="4"/>
      <circle cx="164" cy="206" r="4"/>
      <circle cx="176" cy="206" r="4"/>
      <line x1="170" y1="204" x2="170" y2="220"/>

      <circle cx="145" cy="205" r="4"/>
      <circle cx="145" cy="195" r="4"/>
      <circle cx="137" cy="201" r="4"/>
      <circle cx="153" cy="201" r="4"/>
      <circle cx="139" cy="211" r="4"/>
      <circle cx="151" cy="211" r="4"/>
      <line x1="145" y1="209" x2="145" y2="225"/>
    </g>
  </g>
</svg>
